<?xml version="1.0" encoding="utf-8"?>
<!-- Generator: Adobe Illustrator 16.0.0, SVG Export Plug-In . SVG Version: 6.00 Build 0)  -->
<!DOCTYPE svg PUBLIC "-//W3C//DTD SVG 1.1//EN" "http://www.w3.org/Graphics/SVG/1.1/DTD/svg11.dtd">
<svg version="1.1" xmlns="http://www.w3.org/2000/svg" xmlns:xlink="http://www.w3.org/1999/xlink" x="0px" y="0px"
	 width="841.89px" height="595.281px" viewBox="0 0 841.89 595.281" enable-background="new 0 0 841.89 595.281"
	 xml:space="preserve">
<symbol  id="Runner" viewBox="-29.627 -29.628 59.256 59.256">
	<g>
		<polygon fill="none" points="-29.627,29.628 29.629,29.628 29.629,-29.628 -29.627,-29.628 		"/>
		<path fill="#BDBDBD" d="M29.568-23.489l-1.433,2.178l-2.956-2.547C22.187-19.388,14.248-6.063,3.965-2.327
			c0.812,3.388,0.097,6.352,0.087,9.744c15.747-1.81,14.729,17.222,14.729,17.222C14.966,9.922,8.633,11.906,4.82,14.887
			c-0.765,1.402-1.804,2.527-3.163,3.261l0.444,2.814c0.272,0.027,0.551,0.079,0.823,0.18c1.929,0.708,2.989,3.071,2.37,5.277
			c-0.618,2.205-2.686,3.42-4.614,2.709c-1.928-0.705-2.992-3.067-2.37-5.276c0.325-1.161,1.056-2.035,1.953-2.51l-0.451-2.491
			C-17.255,24.899-22.972,8.115-22.972,8.115c12.3,10.546,14.983,5.228,14.983,5.228c0.244-4.035-0.744-9.228-1.239-13.262
			c-2.426-3.221-4.819-6.69-5.853-18.512c0,0-10.641,2.286-10.672,2.287l-3.716-5.553l1.934-1.585l2.302,3.682
			c2.605-2.447,7.816-6.169,13.373-3.398c4.648,2.318,7.316,7.104,8.863,10.483c9.858,4.248,27.934-15.048,27.951-15.073
			L29.568-23.489z"/>
	</g>
</symbol>
<g id="Layer_1">
	<g>
		<g opacity="0.9">
			<path fill="#FFFFFF" d="M569.765,273.829c0,13.096-10.715,23.811-23.811,23.811H295.936c-13.096,0-23.811-10.715-23.811-23.811
				V23.811C272.125,10.715,282.84,0,295.936,0h250.019c13.096,0,23.811,10.715,23.811,23.811V273.829z"/>
		</g>
	</g>
	<g>
		<g opacity="0.9">
			<path fill="#1E1E1E" d="M569.765,571.468c0,13.098-10.715,23.813-23.811,23.813H295.936c-13.096,0-23.811-10.715-23.811-23.813
				V321.451c0-13.096,10.715-23.811,23.811-23.811h250.019c13.096,0,23.811,10.715,23.811,23.811V571.468z"/>
		</g>
	</g>
</g>
<g id="Layer_2">
	
		<use xlink:href="#Runner"  width="59.256" height="59.256" id="no._1" x="-29.627" y="-29.628" transform="matrix(2.5188 0 0 -2.5188 419.4438 446.1401)" overflow="visible"/>
</g>
<g id="Layer_2_copy">
	<g id="no._2">
		<g>
			<rect x="344.817" y="74.512" fill="none" width="149.256" height="149.256"/>
			<path fill="#333333" d="M493.921,208.305l-3.608-5.484l-7.445,6.415c-7.54-11.261-27.535-44.822-53.438-54.233
				c2.045-8.532,0.244-15.998,0.22-24.545c39.664,4.56,37.101-43.377,37.101-43.377c-9.61,37.068-25.562,32.07-35.165,24.563
				c-1.926-3.531-4.543-6.363-7.968-8.213l1.12-7.089c0.686-0.066,1.387-0.198,2.073-0.452c4.858-1.783,7.529-7.736,5.97-13.292
				c-1.557-5.557-6.765-8.615-11.623-6.826c-4.855,1.776-7.537,7.729-5.97,13.292c0.818,2.923,2.659,5.126,4.919,6.322l-1.136,6.275
				c-42.99-15.236-57.391,27.041-57.391,27.041c30.981-26.563,37.741-13.167,37.741-13.167c0.615,10.165-1.873,23.244-3.12,33.404
				c-6.11,8.112-12.138,16.853-14.743,46.628c0,0-26.802-5.758-26.881-5.761l-9.36,13.986l4.871,3.993l5.799-9.274
				c6.562,6.165,19.688,15.538,33.684,8.559c11.708-5.84,18.428-17.894,22.325-26.404c24.832-10.701,70.36,37.902,70.404,37.966
				L493.921,208.305z"/>
		</g>
	</g>
</g>
</svg>
