<?xml version="1.0" encoding="utf-8"?>
<!-- Generator: Adobe Illustrator 16.0.0, SVG Export Plug-In . SVG Version: 6.00 Build 0)  -->
<!DOCTYPE svg PUBLIC "-//W3C//DTD SVG 1.1//EN" "http://www.w3.org/Graphics/SVG/1.1/DTD/svg11.dtd">
<svg version="1.1" id="Layer_1" xmlns="http://www.w3.org/2000/svg" xmlns:xlink="http://www.w3.org/1999/xlink" x="0px" y="0px"
	 width="841.89px" height="595.281px" viewBox="0 0 841.89 595.281" enable-background="new 0 0 841.89 595.281"
	 xml:space="preserve">
<g>
	<g opacity="0.9">
		<path fill="#FFFFFF" d="M569.765,273.829c0,13.096-10.715,23.811-23.811,23.811H295.936c-13.096,0-23.811-10.715-23.811-23.811
			V23.811C272.125,10.715,282.84,0,295.936,0h250.019c13.096,0,23.811,10.715,23.811,23.811V273.829z"/>
	</g>
	<g>
		<g>
			<path fill="#333333" d="M474.521,128.581c0-0.595-0.596-1.786-1.191-1.786c-0.596-0.596-1.785-0.596-2.381,0l-45.838,26.192
				c-2.381,1.191-4.166,4.167-4.166,6.548v52.385c0,0.595,0.596,1.786,1.191,1.786c0.594,0.595,1.785,0.595,2.381,0l44.051-25.597
				c3.57-1.786,5.951-5.953,5.951-9.524L474.521,128.581L474.521,128.581z"/>
			<path fill="#333333" d="M362.607,126.199c-0.595-0.595-1.786-0.595-2.381,0c-0.595,0.596-1.19,1.191-1.19,1.786l0,0v50.599
				c0,4.167,2.381,7.739,5.953,9.524l44.051,25.597l0,0c0.596,0.595,1.786,0.595,2.381,0s1.19-1.19,1.19-1.786v-52.98
				c0-2.977-1.786-5.357-4.167-6.548L362.607,126.199z"/>
		</g>
		<path fill="#474747" d="M466.781,119.651c0.596-0.595,1.191-1.19,1.191-1.786c0-0.596-0.596-1.786-1.191-1.786l0,0L422.73,90.482
			c-3.571-1.786-7.738-1.786-11.31,0l-44.051,25.002l0,0c-0.595,0.595-1.19,1.19-1.19,1.786s0.595,1.786,1.19,1.786l45.836,26.192
			c2.381,1.19,5.357,1.19,7.739,0L466.781,119.651z"/>
	</g>
</g>
<g>
	<g opacity="0.9">
		<path fill="#1E1E1E" d="M569.765,571.468c0,13.098-10.715,23.813-23.811,23.813H295.936c-13.096,0-23.811-10.715-23.811-23.813
			V321.451c0-13.096,10.715-23.811,23.811-23.811h250.019c13.096,0,23.811,10.715,23.811,23.811V571.468z"/>
	</g>
	<g>
		<g>
			<path fill="#B5B5B5" d="M474.521,426.22c0-0.596-0.596-1.785-1.191-1.785c-0.596-0.596-1.785-0.596-2.381,0l-45.838,26.191
				c-2.381,1.191-4.166,4.168-4.166,6.549v52.385c0,0.596,0.596,1.785,1.191,1.785c0.594,0.596,1.785,0.596,2.381,0l44.051-25.596
				c3.57-1.787,5.951-5.953,5.951-9.525L474.521,426.22L474.521,426.22z"/>
			<path fill="#B5B5B5" d="M362.607,423.839c-0.595-0.596-1.786-0.596-2.381,0s-1.19,1.191-1.19,1.785l0,0v50.6
				c0,4.168,2.381,7.738,5.953,9.525l44.051,25.596l0,0c0.596,0.596,1.786,0.596,2.381,0s1.19-1.189,1.19-1.785v-52.98
				c0-2.977-1.786-5.357-4.167-6.547L362.607,423.839z"/>
		</g>
		<path fill="#CBCBCB" d="M466.781,417.291c0.596-0.594,1.191-1.189,1.191-1.785s-0.596-1.785-1.191-1.785l0,0l-44.051-25.598
			c-3.571-1.785-7.738-1.785-11.31,0l-44.051,25.002l0,0c-0.595,0.596-1.19,1.191-1.19,1.785c0,0.596,0.595,1.787,1.19,1.787
			l45.836,26.191c2.381,1.191,5.357,1.191,7.739,0L466.781,417.291z"/>
	</g>
</g>
</svg>
